<svg width="27" height="30" viewBox="0 0 27 30" fill="none" xmlns="http://www.w3.org/2000/svg">
<g filter="url(#filter0_d_105_344)">
<path d="M5.7939 11.5792C5.88691 11.6894 6.00115 11.7805 6.13006 11.8472C6.25897 11.914 6.40003 11.9551 6.54515 11.9683C6.69027 11.9814 6.83661 11.9663 6.97578 11.9238C7.11495 11.8813 7.24421 11.8123 7.35617 11.7206L12.187 7.77019V20.6772C12.187 20.9658 12.3038 21.2426 12.5116 21.4467C12.7193 21.6508 13.0012 21.7655 13.295 21.7655C13.5889 21.7655 13.8707 21.6508 14.0785 21.4467C14.2863 21.2426 14.403 20.9658 14.403 20.6772V7.77019L19.2339 11.7206C19.3459 11.8121 19.4752 11.881 19.6143 11.9234C19.7535 11.9658 19.8998 11.9808 20.0449 11.9677C20.1899 11.9546 20.3309 11.9135 20.4598 11.8468C20.5888 11.7802 20.703 11.6892 20.7962 11.5792C20.8893 11.4691 20.9594 11.3421 21.0026 11.2055C21.0457 11.0688 21.0611 10.9251 21.0477 10.7826C21.0343 10.6401 20.9925 10.5016 20.9246 10.375C20.8568 10.2484 20.7642 10.1362 20.6521 10.0447L14.0041 4.60329L13.8379 4.50535L13.6939 4.42917C13.4372 4.33188 13.1528 4.33188 12.8961 4.42917L12.7521 4.50535L12.5859 4.60329L5.93794 10.0447C5.82574 10.1361 5.733 10.2483 5.66502 10.3749C5.59705 10.5015 5.55517 10.64 5.54179 10.7826C5.52841 10.9251 5.54379 11.0689 5.58705 11.2055C5.63031 11.3422 5.7006 11.4692 5.7939 11.5792V11.5792Z" fill="#E5E0DE"/>
</g>
<defs>
<filter id="filter0_d_105_344" x="1.53711" y="4.3562" width="23.5156" height="25.4093" filterUnits="userSpaceOnUse" color-interpolation-filters="sRGB">
<feFlood flood-opacity="0" result="BackgroundImageFix"/>
<feColorMatrix in="SourceAlpha" type="matrix" values="0 0 0 0 0 0 0 0 0 0 0 0 0 0 0 0 0 0 127 0" result="hardAlpha"/>
<feOffset dy="4"/>
<feGaussianBlur stdDeviation="2"/>
<feComposite in2="hardAlpha" operator="out"/>
<feColorMatrix type="matrix" values="0 0 0 0 0 0 0 0 0 0 0 0 0 0 0 0 0 0 0.25 0"/>
<feBlend mode="normal" in2="BackgroundImageFix" result="effect1_dropShadow_105_344"/>
<feBlend mode="normal" in="SourceGraphic" in2="effect1_dropShadow_105_344" result="shape"/>
</filter>
</defs>
</svg>
