<svg width="42" height="38" viewBox="0 0 42 38" fill="none" xmlns="http://www.w3.org/2000/svg">
<path d="M21.3103 1.55874C16.3499 1.51302 11.5724 3.25561 8.02785 6.40354C4.48328 9.55146 2.46163 13.8471 2.40723 18.3465C2.42634 21.9023 3.68738 25.3611 6.00923 28.2261C8.33107 31.0911 11.5942 33.215 15.3301 34.2925C16.2752 34.4484 16.6189 33.934 16.6189 33.482C16.6189 33.03 16.6189 32.0324 16.6189 30.6295C11.3604 31.6427 10.2434 28.3849 10.2434 28.3849C9.89335 27.3622 9.14915 26.4879 8.14689 25.922C6.42842 24.8933 8.28436 24.9089 8.28436 24.9089C8.87835 24.9809 9.44665 25.174 9.94664 25.4736C10.4466 25.7733 10.8653 26.1717 11.1714 26.6391C11.7047 27.4779 12.5797 28.0932 13.6082 28.3527C14.6366 28.6121 15.7363 28.495 16.6704 28.0264C16.7665 27.1728 17.1927 26.3776 17.8734 25.7818C13.6803 25.3609 9.28107 23.9268 9.28107 17.4892C9.24357 15.8099 9.92763 14.1832 11.1886 12.9532C10.6143 11.5115 10.6821 9.92349 11.3776 8.52636C11.3776 8.52636 12.9758 8.07433 16.533 10.241C19.6295 9.49254 22.888 9.49254 25.9845 10.241C29.5933 8.07433 31.1399 8.52636 31.1399 8.52636C31.8354 9.92349 31.9032 11.5115 31.3289 12.9532C32.6191 14.1607 33.3403 15.7765 33.3395 17.458C33.3395 23.9113 28.9059 25.3297 24.7472 25.7506C25.2026 26.1516 25.5543 26.6392 25.7772 27.1782C26 27.7172 26.0884 28.2944 26.0361 28.8681V33.4664C26.0361 33.4664 26.3798 34.4484 27.3249 34.277C31.0501 33.1927 34.3023 31.0684 36.617 28.2074C38.9316 25.3464 40.1903 21.8951 40.2134 18.3465C40.159 13.8471 38.1373 9.55146 34.5927 6.40354C31.0482 3.25561 26.2707 1.51302 21.3103 1.55874" fill="#E5E0DE"/>
</svg>
