<svg width="41" height="38" viewBox="0 0 41 38" fill="none" xmlns="http://www.w3.org/2000/svg">
<path d="M25.4886 13.4296C24.1991 13.4256 22.9214 13.6523 21.7286 14.0966C20.5358 14.541 19.4513 15.1943 18.5371 16.0193C17.623 16.8442 16.8972 17.8245 16.4011 18.9042C15.9051 19.9838 15.6487 21.1416 15.6465 22.3112V31.2844C15.6465 31.6487 15.806 31.998 16.09 32.2556C16.3739 32.5132 16.7591 32.6579 17.1607 32.6579H20.6937C21.0953 32.6579 21.4804 32.5132 21.7644 32.2556C22.0484 31.998 22.2079 31.6487 22.2079 31.2844V22.3112C22.2075 21.8952 22.3039 21.4838 22.4906 21.1039C22.6773 20.7239 22.9502 20.3839 23.2915 20.106C23.6327 19.8281 24.0348 19.6186 24.4713 19.4911C24.9079 19.3636 25.3691 19.3209 25.8251 19.366C26.6427 19.4594 27.3942 19.8217 27.9368 20.3843C28.4795 20.9469 28.7757 21.6706 28.7693 22.4181V31.2844C28.7693 31.6487 28.9288 31.998 29.2128 32.2556C29.4967 32.5132 29.8819 32.6579 30.2834 32.6579H33.8165C34.2181 32.6579 34.6032 32.5132 34.8872 32.2556C35.1711 31.998 35.3307 31.6487 35.3307 31.2844V22.3112C35.3285 21.1416 35.072 19.9838 34.576 18.9042C34.08 17.8245 33.3542 16.8442 32.44 16.0193C31.5259 15.1943 30.4414 14.541 29.2486 14.0966C28.0557 13.6523 26.7781 13.4256 25.4886 13.4296Z" fill="#E5E0DE"/>
<path d="M11.1035 14.8032H6.56104C5.72479 14.8032 5.04688 15.4181 5.04688 16.1767V31.2846C5.04688 32.0431 5.72479 32.658 6.56104 32.658H11.1035C11.9398 32.658 12.6177 32.0431 12.6177 31.2846V16.1767C12.6177 15.4181 11.9398 14.8032 11.1035 14.8032Z" fill="#E5E0DE"/>
<path d="M8.8323 12.0562C10.9229 12.0562 12.6177 10.5189 12.6177 8.62258C12.6177 6.72625 10.9229 5.18896 8.8323 5.18896C6.74167 5.18896 5.04688 6.72625 5.04688 8.62258C5.04688 10.5189 6.74167 12.0562 8.8323 12.0562Z" fill="#E5E0DE"/>
</svg>
