<svg width="29" height="27" viewBox="0 0 29 27" fill="none" xmlns="http://www.w3.org/2000/svg">
<path d="M24.0903 11.9544C23.7709 11.9544 23.4645 12.0689 23.2386 12.2727C23.0127 12.4765 22.8858 12.753 22.8858 13.0412V19.5618C22.8858 19.85 22.7589 20.1265 22.5331 20.3303C22.3072 20.5341 22.0008 20.6486 21.6814 20.6486H7.22768C6.90823 20.6486 6.60187 20.5341 6.37599 20.3303C6.15011 20.1265 6.02321 19.85 6.02321 19.5618V6.52057C6.02321 6.23234 6.15011 5.95591 6.37599 5.7521C6.60187 5.54829 6.90823 5.4338 7.22768 5.4338H14.4545C14.774 5.4338 15.0803 5.3193 15.3062 5.11549C15.5321 4.91168 15.659 4.63525 15.659 4.34702C15.659 4.0588 15.5321 3.78237 15.3062 3.57856C15.0803 3.37475 14.774 3.26025 14.4545 3.26025H7.22768C6.26934 3.26025 5.35025 3.60375 4.6726 4.21518C3.99496 4.8266 3.61426 5.65588 3.61426 6.52057V19.5618C3.61426 20.4265 3.99496 21.2558 4.6726 21.8672C5.35025 22.4786 6.26934 22.8221 7.22768 22.8221H21.6814C22.6397 22.8221 23.5588 22.4786 24.2364 21.8672C24.9141 21.2558 25.2948 20.4265 25.2948 19.5618V13.0412C25.2948 12.753 25.1679 12.4765 24.942 12.2727C24.7161 12.0689 24.4098 11.9544 24.0903 11.9544Z" fill="white"/>
<path d="M19.2715 5.4338H21.1746L13.5985 12.2587C13.4856 12.3597 13.396 12.4799 13.3348 12.6124C13.2737 12.7448 13.2422 12.8869 13.2422 13.0303C13.2422 13.1738 13.2737 13.3158 13.3348 13.4483C13.396 13.5807 13.4856 13.7009 13.5985 13.8019C13.7104 13.9038 13.8437 13.9846 13.9904 14.0398C14.1372 14.095 14.2946 14.1234 14.4536 14.1234C14.6127 14.1234 14.7701 14.095 14.9169 14.0398C15.0636 13.9846 15.1969 13.9038 15.3088 13.8019L22.885 6.97701V8.69411C22.885 8.98234 23.0119 9.25876 23.2377 9.46257C23.4636 9.66638 23.77 9.78088 24.0894 9.78088C24.4089 9.78088 24.7152 9.66638 24.9411 9.46257C25.167 9.25876 25.2939 8.98234 25.2939 8.69411V4.34703C25.2939 4.0588 25.167 3.78237 24.9411 3.57856C24.7152 3.37475 24.4089 3.26025 24.0894 3.26025H19.2715C18.9521 3.26025 18.6457 3.37475 18.4199 3.57856C18.194 3.78237 18.0671 4.0588 18.0671 4.34703C18.0671 4.63525 18.194 4.91168 18.4199 5.11549C18.6457 5.3193 18.9521 5.4338 19.2715 5.4338Z" fill="white"/>
</svg>
