<svg width="80" height="65" viewBox="0 0 80 65" fill="none" xmlns="http://www.w3.org/2000/svg">
<path d="M5.88 9.224H4.032V17H2.04V0.199999H4.032V7.688H5.832L11.232 0.199999H13.536L7.608 8.192L14.28 17H11.76L5.88 9.224ZM33.1106 0.199999H35.0306V11.408C35.0306 12.416 34.8946 13.288 34.6226 14.024C34.3666 14.76 33.9986 15.368 33.5186 15.848C33.0386 16.312 32.4546 16.656 31.7666 16.88C31.0786 17.104 30.3186 17.216 29.4866 17.216C27.5026 17.216 26.0066 16.768 24.9986 15.872C24.0066 14.976 23.5106 13.616 23.5106 11.792V0.199999H25.5026V10.856C25.5026 11.704 25.5826 12.424 25.7426 13.016C25.9186 13.592 26.1666 14.064 26.4866 14.432C26.8226 14.784 27.2386 15.04 27.7346 15.2C28.2466 15.36 28.8386 15.44 29.5106 15.44C30.8066 15.44 31.7266 15.088 32.2706 14.384C32.8306 13.664 33.1106 12.488 33.1106 10.856V0.199999ZM46.5413 0.368C47.1493 0.255999 47.8453 0.167999 48.6293 0.103999C49.4293 0.0399995 50.1573 0.0079999 50.8133 0.0079999C51.5493 0.0079999 52.2453 0.0879998 52.9013 0.248C53.5733 0.408 54.1573 0.671999 54.6533 1.04C55.1653 1.408 55.5733 1.888 55.8773 2.48C56.1813 3.072 56.3333 3.792 56.3333 4.64C56.3333 5.296 56.2213 5.88 55.9973 6.392C55.7893 6.888 55.5253 7.32 55.2053 7.688C54.9013 8.04 54.5813 8.328 54.2453 8.552C53.9093 8.776 53.6213 8.936 53.3813 9.032L57.8213 17H55.4933L51.5333 9.608H48.5333V17H46.5413V0.368ZM50.8613 1.736C50.6533 1.736 50.4373 1.736 50.2133 1.736C49.9893 1.736 49.7733 1.744 49.5653 1.76C49.3573 1.776 49.1573 1.792 48.9653 1.808C48.7893 1.824 48.6453 1.848 48.5333 1.88V8.072H50.4053C51.5093 8.072 52.4213 7.8 53.1413 7.256C53.8613 6.712 54.2213 5.864 54.2213 4.712C54.2213 3.848 53.9253 3.136 53.3333 2.576C52.7413 2.016 51.9173 1.736 50.8613 1.736ZM67.1719 0.199999H79.6519V4.592H77.8759V1.976H74.3959V15.224H77.0359V17H69.7639V15.224H72.4039V1.976H68.9479V4.592H67.1719V0.199999ZM4.152 36.176L4.272 37.736H4.44L4.776 36.032L6.552 29.48H8.136L9.792 35.984L10.224 37.76H10.344L10.488 36.128L12.264 24.2H14.04L11.448 41H9.456L7.512 34.184L7.272 32.552H7.2L6.936 34.208L4.992 41H2.976L0.36 24.2H2.256L4.152 36.176ZM32.4146 36.344H25.9586L24.4226 41H22.4546L28.0706 24.2H30.4226L36.0866 41H33.9986L32.4146 36.344ZM26.5826 34.616H31.8626L29.3906 26.72H29.1026L26.5826 34.616ZM45.5813 24.2H57.1013V25.976H52.3253V39.224H57.1013V41H45.5813V39.224H50.3333V25.976H45.5813V24.2ZM67.5319 39.2L77.0119 25.976H67.5319V24.2H79.2919V26L69.7639 39.224H79.2919V41H67.5319V39.2ZM10.968 53.84L11.208 51.56H11.088L9.936 53.624L7.488 57.728H6.888L4.32 53.6L3.216 51.56H3.096L3.384 53.816V65H1.44V48.2H3.288L7.272 54.584H7.32L11.16 48.2H12.96V65H10.968V53.84ZM32.4146 60.344H25.9586L24.4226 65H22.4546L28.0706 48.2H30.4226L36.0866 65H33.9986L32.4146 60.344ZM26.5826 58.616H31.8626L29.3906 50.72H29.1026L26.5826 58.616ZM48.8453 54.488L47.5493 52.064H47.4533L47.6933 54.488V65H45.8213V48.2H47.1173L53.8853 58.664L55.1333 60.968H55.2533L54.9893 58.664V48.2H56.8613V65H55.5653L48.8453 54.488ZM70.9159 54.488L69.6199 52.064H69.5239L69.7639 54.488V65H67.8919V48.2H69.1879L75.9559 58.664L77.2039 60.968H77.3239L77.0599 58.664V48.2H78.9319V65H77.6359L70.9159 54.488Z" fill="#4C5272"/>
</svg>
