<svg width="80" height="66" viewBox="0 0 80 66" fill="none" xmlns="http://www.w3.org/2000/svg">
<path d="M6.144 10.992H4.44V18H1.152V1.2H4.44V8.064H6.144L9.984 1.2H13.728L9 9.312L14.328 18H10.272L6.144 10.992ZM32.1506 1.2H35.2706V11.952C35.2706 13.04 35.1266 13.984 34.8386 14.784C34.5506 15.568 34.1426 16.224 33.6146 16.752C33.1026 17.264 32.4866 17.648 31.7666 17.904C31.0466 18.16 30.2546 18.288 29.3906 18.288C27.3106 18.288 25.7666 17.784 24.7586 16.776C23.7666 15.768 23.2706 14.296 23.2706 12.36V1.2H26.5586V11.712C26.5586 12.992 26.7906 13.92 27.2546 14.496C27.7186 15.072 28.4466 15.36 29.4386 15.36C30.3986 15.36 31.0866 15.056 31.5026 14.448C31.9346 13.824 32.1506 12.912 32.1506 11.712V1.2ZM45.6293 1.368C45.9973 1.304 46.3893 1.248 46.8053 1.2C47.2373 1.136 47.6613 1.088 48.0773 1.056C48.5093 1.024 48.9253 1 49.3253 0.983999C49.7253 0.967999 50.0933 0.959999 50.4293 0.959999C51.2133 0.959999 51.9813 1.04 52.7333 1.2C53.5013 1.344 54.1813 1.6 54.7733 1.968C55.3813 2.336 55.8613 2.832 56.2133 3.456C56.5813 4.08 56.7653 4.856 56.7653 5.784C56.7653 6.472 56.6933 7.072 56.5493 7.584C56.4213 8.08 56.2373 8.52 55.9973 8.904C55.7573 9.288 55.4613 9.624 55.1093 9.912C54.7733 10.184 54.4053 10.432 54.0053 10.656L58.0613 18H54.2693L50.8853 11.424H48.9173V18H45.6293V1.368ZM50.6693 3.888C50.3333 3.888 49.9973 3.896 49.6613 3.912C49.3413 3.928 49.0933 3.96 48.9173 4.008V8.88H50.2133C51.1253 8.88 51.8693 8.672 52.4453 8.256C53.0213 7.84 53.3093 7.152 53.3093 6.192C53.3093 5.472 53.0853 4.912 52.6373 4.512C52.1893 4.096 51.5333 3.888 50.6693 3.888ZM69.0439 15.36H71.7799V3.84H69.4759V6.744H66.8359V1.2H79.9879V6.744H77.3479V3.84H75.0679V15.36H77.7799V18H69.0439V15.36ZM4.2 34.584L4.248 36.6H4.344L4.752 34.704L6.192 30.24H8.64L9.984 34.704L10.416 36.6H10.512L10.56 34.536L11.232 25.2H14.256L12.528 42H9.744L7.944 36.696L7.392 34.392H7.272L6.696 36.696L4.752 42H1.872L0.144 25.2H3.432L4.2 34.584ZM31.6706 38.28H26.6546L25.5026 42H22.2146L27.6386 25.2H30.9266L36.3266 42H32.8706L31.6706 38.28ZM27.4226 35.64H31.0226L29.3186 30.024H29.1026L27.4226 35.64ZM45.4373 39.072H49.6853V28.128H45.4373V25.2H57.2453V28.128H52.9733V39.072H57.2453V42H45.4373V39.072ZM67.4839 39.072L75.3559 28.128H67.8679V25.2H79.2199V28.128L71.4679 39.072H79.3399V42H67.4839V39.072ZM10.152 57.048L10.272 54.432H10.128L7.44 58.824H6.864L4.056 54.432H3.936L4.08 56.784V66H0.96V49.2H4.296L7.176 53.856H7.272L10.128 49.2H13.44V66H10.152V57.048ZM31.6706 62.28H26.6546L25.5026 66H22.2146L27.6386 49.2H30.9266L36.3266 66H32.8706L31.6706 62.28ZM27.4226 59.64H31.0226L29.3186 54.024H29.1026L27.4226 59.64ZM48.5813 56.064H48.4613L48.6053 58.056V66H45.4853V49.2H48.3653L54.1733 59.472H54.2933L54.0773 57.456V49.2H57.1973V66H54.3173L48.5813 56.064ZM70.6519 56.064H70.5319L70.6759 58.056V66H67.5559V49.2H70.4359L76.2439 59.472H76.3639L76.1479 57.456V49.2H79.2679V66H76.3879L70.6519 56.064Z" fill="#4C5272"/>
</svg>
