<svg width="177" height="85" viewBox="0 0 177 85" fill="none" xmlns="http://www.w3.org/2000/svg">
<path d="M2 31.0912C2 59.7598 10.6592 83 21.3409 83C32.0225 83 40.6818 59.7598 40.6818 31.0912C40.6818 15.0247 37.0162 2 32.4945 2C27.9728 2 24.3073 15.0247 24.3073 31.0912C24.3073 59.7598 32.9665 83 43.6481 83C54.3298 83 62.9893 59.7598 62.9893 31.0912C62.9893 15.0247 59.3236 2 54.8018 2C50.2801 2 46.6145 15.0247 46.6145 31.0912C46.6145 59.7598 55.3269 83 66.074 83C76.8211 83 85.5338 59.7598 85.5338 31.0912C85.5338 15.0247 81.8681 2 77.3463 2C72.8244 2 69.1594 15.0247 69.1594 31.0912C69.1594 59.7598 77.8183 83 88.5 83C99.1817 83 107.841 59.7598 107.841 31.0912C107.841 15.0247 104.176 2 99.6537 2C95.1319 2 91.4662 15.0247 91.4662 31.0912C91.4662 59.7598 100.126 83 110.807 83C121.489 83 130.148 59.7598 130.148 31.0912C130.148 15.0247 126.482 2 121.961 2C117.439 2 113.774 15.0247 113.774 31.0912C113.774 59.7598 122.433 83 133.114 83C143.796 83 152.456 59.7598 152.456 31.0912C152.456 15.0247 148.79 2 144.268 2C139.747 2 136.081 15.0247 136.081 31.0912C136.081 59.7598 144.793 83 155.54 83C166.287 83 175 59.7598 175 31.0912" stroke="#ADB1BB" stroke-width="3" stroke-linecap="round"/>
</svg>
