<svg width="26" height="24" viewBox="0 0 26 24" fill="none" xmlns="http://www.w3.org/2000/svg">
<path d="M12.8484 0.96612C9.75792 0.937785 6.78144 2.01774 4.57308 3.96863C2.36472 5.91952 1.10519 8.58172 1.07129 11.3701C1.0832 13.5738 1.86886 15.7173 3.31542 17.4929C4.76199 19.2685 6.79503 20.5847 9.12253 21.2525C9.71138 21.3491 9.92551 21.0303 9.92551 20.7502C9.92551 20.47 9.92551 19.8518 9.92551 18.9824C6.64934 19.6103 5.95342 17.5913 5.95342 17.5913C5.73533 16.9575 5.27167 16.4157 4.64724 16.065C3.5766 15.4274 4.73289 15.4371 4.73289 15.4371C5.10296 15.4817 5.45703 15.6014 5.76853 15.7871C6.08004 15.9728 6.34091 16.2197 6.53157 16.5094C6.86383 17.0292 7.409 17.4105 8.04976 17.5713C8.69051 17.7321 9.37562 17.6595 9.95763 17.3691C10.0175 16.8401 10.283 16.3473 10.7071 15.978C8.09471 15.7172 5.35386 14.8285 5.35386 10.8388C5.3305 9.79812 5.75669 8.79001 6.54228 8.02772C6.1845 7.13422 6.22674 6.15008 6.66005 5.28422C6.66005 5.28422 7.65575 5.00408 9.87198 6.34684C11.8012 5.883 13.8313 5.883 15.7605 6.34684C18.0089 5.00408 18.9724 5.28422 18.9724 5.28422C19.4058 6.15008 19.448 7.13422 19.0902 8.02772C19.8941 8.77604 20.3434 9.77738 20.3429 10.8195C20.3429 14.8188 17.5806 15.6979 14.9897 15.9587C15.2734 16.2073 15.4925 16.5094 15.6313 16.8435C15.7702 17.1775 15.8253 17.5352 15.7926 17.8908V20.7405C15.7926 20.7405 16.0068 21.3491 16.5956 21.2428C18.9165 20.5709 20.9427 19.2544 22.3848 17.4813C23.8269 15.7083 24.6111 13.5694 24.6254 11.3701C24.5916 8.58172 23.332 5.91952 21.1237 3.96863C18.9153 2.01774 15.9388 0.937785 12.8484 0.96612Z" fill="white"/>
</svg>
