<svg width="22" height="21" viewBox="0 0 22 21" fill="none" xmlns="http://www.w3.org/2000/svg">
<path d="M12.3401 19.1975C11.8934 18.7913 11.6142 18.2327 11.6142 17.6234V12.4441C11.6142 11.784 12.2843 11.4794 12.6751 11.4794H18.4264C19.599 11.4794 20.8832 12.3426 20.8832 13.7135C20.8832 14.9322 19.8223 15.9477 18.4822 15.9477C17.6447 15.9477 17.0305 15.5923 16.6954 15.2876C16.6954 15.2876 16.4721 15.0845 16.4162 15.0338C16.4721 14.9322 16.5279 14.7799 16.5279 14.5768C16.5279 13.8151 15.8579 13.2566 15.0203 13.2566C14.6294 13.2566 14.2944 13.4089 14.0152 13.612C13.736 13.8659 13.5685 14.2213 13.5685 14.5768C13.5685 14.9322 13.736 15.2876 14.0152 15.5415C14.2944 15.7954 14.6294 15.897 15.0761 15.897C15.2995 15.897 15.467 15.8462 15.5787 15.7954C15.6345 15.8462 15.8579 16.0493 15.8579 16.0493C16.0254 16.2016 16.5837 16.7602 16.5837 17.6234C16.5837 18.9944 15.2995 19.8576 14.1269 19.8576C13.4569 19.8576 12.8426 19.6037 12.3401 19.1975ZM1.95431 15.2876C1.50761 14.8814 1.22842 14.2721 1.22842 13.7135C1.22842 13.1042 1.45178 12.5457 1.95431 12.1395C2.40101 11.7332 3.01523 11.4794 3.68528 11.4794H9.38071C10.1066 11.4794 10.4975 12.0379 10.4975 12.4441V17.6234C10.4975 18.2327 10.2183 18.7913 9.77157 19.1975C9.43655 19.5021 8.87818 19.8576 8.04061 19.8576C6.70051 19.8576 5.58375 18.8928 5.58375 17.6742C5.58375 16.9125 5.97462 16.354 6.30964 16.0493C6.30964 16.0493 6.53299 15.8462 6.58883 15.7954C6.70051 15.8462 6.86802 15.897 7.09137 15.897C7.92893 15.897 8.54315 15.2876 8.54315 14.526C8.54315 14.1705 8.37564 13.8659 8.15229 13.612C7.8731 13.3581 7.48223 13.2058 7.09137 13.2058C6.7005 13.2058 6.30964 13.3581 6.03046 13.612C5.75127 13.8659 5.6396 14.1705 5.6396 14.526C5.6396 14.7291 5.69543 14.8814 5.75127 14.983C5.69543 15.0338 5.47208 15.2369 5.47208 15.2369C5.30457 15.3892 4.69035 15.897 3.74111 15.897C3.01523 15.9477 2.40101 15.6939 1.95431 15.2876ZM11.6142 4.21823C11.6142 3.60891 11.8934 3.05036 12.3401 2.64415C12.6751 2.33948 13.2335 1.98404 14.0711 1.98404C14.7411 1.98404 15.3553 2.23793 15.802 2.64415C16.2487 3.05036 16.5279 3.60891 16.5279 4.16746C16.5279 4.92911 16.1371 5.48766 15.802 5.79232C15.802 5.79232 15.5787 5.99543 15.5228 6.04621C15.4112 5.99543 15.2437 5.94465 15.0203 5.94465C14.1827 5.94465 13.5685 6.55398 13.5685 7.31564C13.5685 7.67108 13.736 7.97574 13.9594 8.22962C14.2386 8.48351 14.6294 8.63584 15.0203 8.63584C15.4112 8.63584 15.802 8.48351 16.0812 8.22962C16.3604 7.97574 16.4721 7.67108 16.4721 7.31564C16.4721 7.11253 16.4162 6.9602 16.3604 6.85864C16.4162 6.80786 16.6396 6.60476 16.6396 6.60476C16.8071 6.45243 17.4213 5.94465 18.3706 5.94465C19.8782 5.94465 20.8274 7.11253 20.8274 8.17885C20.8274 8.78817 20.5482 9.34672 20.1015 9.75293C19.6548 10.1592 19.0406 10.413 18.3706 10.413H12.731C12.0051 10.413 11.6701 9.85449 11.6701 9.44827L11.6142 4.21823ZM6.30964 5.8431C6.14213 5.69077 5.58375 5.13222 5.58375 4.26901C5.58375 2.89803 6.86802 2.03482 8.04061 2.03482C8.71066 2.03482 9.32487 2.28871 9.77157 2.69492C10.2183 3.10114 10.4975 3.65969 10.4975 4.26901V9.3975C10.4975 10.0576 9.88325 10.3623 9.43655 10.3623H3.74111C3.07106 10.3623 2.45686 10.1084 2.01016 9.70216C1.67513 9.3975 1.28427 8.88972 1.28427 8.12807C1.28427 7.51874 1.56345 6.9602 2.01016 6.55398C2.45686 6.14776 3.07107 5.89388 3.68528 5.89388C4.52284 5.89388 5.13706 6.24932 5.47208 6.55398C5.47208 6.55398 5.69543 6.75709 5.75127 6.80787C5.69543 6.90942 5.6396 7.06175 5.6396 7.26486C5.6396 8.02651 6.30964 8.58506 7.14721 8.58506C7.53807 8.58506 7.8731 8.43273 8.15229 8.22962C8.43147 7.97574 8.59899 7.6203 8.59899 7.26486C8.59899 6.90942 8.43147 6.55398 8.15229 6.30009C7.8731 6.04621 7.53807 5.94465 7.09137 5.94465C6.86802 5.94465 6.70051 5.99543 6.58883 6.04621C6.53299 6.04621 6.30964 5.8431 6.30964 5.8431ZM11.0558 2.49181C10.3299 1.52705 9.2132 0.917725 7.98477 0.917725C5.97462 0.917725 4.35533 2.39026 4.35533 4.21823C4.35533 4.42134 4.41117 4.62445 4.467 4.97989C4.29949 4.92911 3.90863 4.87834 3.62944 4.87834C1.56345 4.87834 0 6.30009 0 8.12807C0 9.19439 0.670054 10.2607 1.73097 10.9208C0.670054 11.5809 0 12.5965 0 13.6628C0 15.4907 1.61929 16.9633 3.68528 16.9633C3.90863 16.9633 4.24365 16.9125 4.467 16.8617C4.41117 17.1664 4.35533 17.4203 4.35533 17.5726C4.35533 19.4514 5.91878 20.8731 7.98477 20.8731C9.15736 20.8731 10.2741 20.3146 11 19.3498C11.67 20.2638 12.8985 20.8731 14.0711 20.8731C16.0812 20.8731 17.6447 19.4006 17.6447 17.5726C17.6447 17.3187 17.5888 17.0141 17.533 16.8617C17.868 16.9125 18.1472 16.9633 18.3706 16.9633C20.3807 16.9633 22 15.4907 22 13.6628C22 12.5965 21.3858 11.5301 20.3249 10.9208C21.3299 10.3115 22 9.24516 22 8.17885C22 6.40165 20.3249 4.92911 18.3147 4.92911C18.0355 4.92911 17.7563 4.97989 17.533 5.03067C17.5888 4.87834 17.6447 4.5229 17.6447 4.26901C17.6447 2.39026 16.0812 0.968502 14.0711 0.968502C12.8985 0.917725 11.7259 1.52705 11.0558 2.49181Z" fill="#E5E0DE"/>
</svg>
