<svg width="120" height="112" viewBox="0 0 120 112" fill="none" xmlns="http://www.w3.org/2000/svg">
<path fill-rule="evenodd" clip-rule="evenodd" d="M120 56C120 86.9281 93.1373 112 60 112C26.8629 112 0 86.9281 0 56C0 25.0721 26.8629 0 60 0C93.1373 0 120 25.0721 120 56ZM44.0002 46.4595C49.6454 46.4595 54.2222 42.1878 54.2222 36.9184C54.2222 31.6495 49.6454 27.3778 44.0002 27.3778C38.3544 27.3778 33.7776 31.6495 33.7776 36.9184C33.7776 42.1878 38.3544 46.4595 44.0002 46.4595ZM75.9998 46.4595C81.6456 46.4595 86.2224 42.1878 86.2224 36.9184C86.2224 31.6495 81.6456 27.3778 75.9998 27.3778C70.3546 27.3778 65.7778 31.6495 65.7778 36.9184C65.7778 42.1878 70.3546 46.4595 75.9998 46.4595ZM60.4444 75.4963C46.6989 75.4963 35.5556 65.096 35.5556 52.2668H24.8889C24.8889 70.5942 40.8079 85.4521 60.4444 85.4521C80.0814 85.4521 96 70.5942 96 52.2668H85.3331C85.3331 65.096 74.1904 75.4963 60.4444 75.4963Z" fill="#4C5272"/>
</svg>
